<svg id="svg" version="1.1" xmlns="http://www.w3.org/2000/svg" xmlns:xlink="http://www.w3.org/1999/xlink" width="400" height="404.07701019252545" viewBox="0, 0, 400,404.07701019252545"><g id="svgg"><path id="path0" d="M146.675 119.972 C 138.072 128.537,130.891 135.456,130.717 135.349 C 130.543 135.241,130.400 129.313,130.400 122.176 L 130.400 109.200 113.400 109.200 L 96.400 109.200 96.400 151.600 L 96.400 194.000 139.200 194.000 L 182.000 194.000 182.000 177.000 L 182.000 160.000 168.800 160.000 C 161.540 160.000,155.600 159.866,155.600 159.702 C 155.600 159.538,162.569 152.433,171.086 143.914 L 186.573 128.423 182.594 124.312 C 173.756 115.177,162.980 104.420,162.658 104.410 C 162.470 104.405,155.277 111.407,146.675 119.972 M96.667 209.867 C 96.520 210.013,96.400 217.663,96.400 226.867 L 96.400 243.600 109.600 243.600 C 116.860 243.600,122.800 243.736,122.800 243.902 C 122.800 244.068,115.870 251.132,107.400 259.600 C 98.929 268.069,92.044 275.124,92.100 275.280 C 92.335 275.942,115.324 299.200,115.742 299.200 C 115.996 299.200,123.212 292.190,131.777 283.623 C 140.342 275.055,147.497 268.136,147.675 268.246 C 147.854 268.357,148.000 274.287,148.000 281.424 L 148.000 294.400 165.000 294.400 L 182.000 294.400 182.000 252.000 L 182.000 209.600 139.467 209.600 C 116.073 209.600,96.813 209.720,96.667 209.867 M196.800 252.000 L 196.800 294.400 213.800 294.400 L 230.800 294.400 230.800 281.200 C 230.800 273.940,230.936 268.000,231.102 268.000 C 231.268 268.000,238.422 275.020,247.000 283.600 C 255.578 292.180,262.778 299.200,263.001 299.200 C 263.223 299.200,268.759 293.844,275.302 287.298 L 287.199 275.396 271.600 259.800 C 263.020 251.222,256.000 244.068,256.000 243.902 C 256.000 243.736,261.940 243.600,269.200 243.600 L 282.400 243.600 282.400 226.600 L 282.400 209.600 239.600 209.600 L 196.800 209.600 196.800 252.000 " stroke="none" fill="#fafafa" fill-rule="evenodd"></path><path id="path1" d="M197.600 121.200 L 197.600 138.000 210.800 138.000 C 218.060 138.000,224.000 138.128,224.000 138.284 C 224.000 138.440,217.025 145.550,208.500 154.085 C 199.975 162.619,192.942 169.774,192.872 169.985 C 192.752 170.345,215.664 193.249,216.424 193.529 C 216.616 193.600,223.698 186.697,232.161 178.190 C 240.703 169.604,247.738 162.838,247.975 162.984 C 248.261 163.161,248.400 167.486,248.400 176.224 L 248.400 189.200 265.200 189.200 L 282.000 189.200 282.000 146.800 L 282.000 104.400 239.800 104.400 L 197.600 104.400 197.600 121.200 M101.200 243.884 C 112.798 244.166,122.801 244.173,122.800 243.900 C 122.800 243.735,116.905 243.639,109.700 243.686 C 102.495 243.733,98.670 243.822,101.200 243.884 M262.525 243.899 C 266.224 243.966,272.164 243.965,275.725 243.899 C 279.286 243.833,276.260 243.779,269.000 243.779 C 261.740 243.779,258.826 243.833,262.525 243.899 M147.779 281.400 C 147.779 288.660,147.833 291.686,147.899 288.125 C 147.965 284.564,147.966 278.624,147.899 274.925 C 147.833 271.226,147.779 274.140,147.779 281.400 M94.200 278.000 C 95.506 279.320,96.665 280.400,96.775 280.400 C 96.885 280.400,95.906 279.320,94.600 278.000 C 93.294 276.680,92.135 275.600,92.025 275.600 C 91.915 275.600,92.894 276.680,94.200 278.000 M98.400 282.200 C 99.146 282.970,99.847 283.600,99.957 283.600 C 100.067 283.600,99.546 282.970,98.800 282.200 C 98.054 281.430,97.353 280.800,97.243 280.800 C 97.133 280.800,97.654 281.430,98.400 282.200 " stroke="none" fill="#8484ec" fill-rule="evenodd"></path><path id="path2" d="M33.600 201.788 L 33.600 377.200 129.400 377.200 C 182.090 377.200,225.200 377.048,225.200 376.862 C 225.200 376.676,228.305 376.412,232.100 376.275 C 235.895 376.139,240.530 375.833,242.400 375.597 C 248.749 374.795,255.799 373.526,255.933 373.163 C 256.007 372.963,256.349 372.800,256.694 372.800 C 257.798 372.800,267.355 370.411,268.600 369.824 C 269.260 369.513,271.600 368.665,273.800 367.941 C 276.000 367.217,277.891 366.499,278.002 366.348 C 278.112 366.196,279.896 365.434,281.966 364.655 C 284.035 363.876,285.835 363.072,285.964 362.868 C 286.094 362.664,287.545 361.926,289.189 361.229 C 290.832 360.531,292.272 359.831,292.389 359.674 C 292.505 359.517,293.937 358.696,295.572 357.850 C 297.207 357.005,298.775 356.082,299.058 355.799 C 299.341 355.516,300.403 354.883,301.418 354.391 C 302.434 353.900,303.359 353.251,303.475 352.949 C 303.591 352.647,303.843 352.400,304.035 352.400 C 304.525 352.400,308.713 349.687,309.613 348.787 C 310.022 348.378,310.896 347.764,311.554 347.424 C 312.213 347.083,312.987 346.489,313.276 346.102 C 313.564 345.716,314.573 344.875,315.517 344.234 C 316.462 343.592,317.362 342.861,317.517 342.609 C 317.673 342.358,318.186 341.889,318.657 341.568 C 320.447 340.350,327.021 334.040,330.538 330.165 C 336.008 324.137,340.400 318.913,340.400 318.434 C 340.400 318.260,340.884 317.596,341.476 316.958 C 342.829 315.503,346.541 310.076,347.588 308.023 C 348.023 307.171,348.526 306.412,348.707 306.337 C 348.888 306.262,349.634 305.030,350.365 303.600 C 351.096 302.170,351.927 300.730,352.210 300.400 C 352.493 300.070,353.320 298.450,354.046 296.800 C 354.772 295.150,355.503 293.703,355.669 293.585 C 355.835 293.467,356.543 291.937,357.242 290.185 C 357.941 288.433,358.674 286.793,358.872 286.540 C 359.331 285.953,362.000 278.127,362.000 277.370 C 362.000 277.056,362.152 276.800,362.338 276.800 C 362.693 276.800,363.822 273.090,365.017 268.000 C 365.405 266.350,365.839 264.910,365.982 264.800 C 366.386 264.491,367.466 258.410,368.257 252.000 C 368.651 248.810,369.159 246.072,369.387 245.915 C 369.992 245.497,369.960 158.325,369.354 157.561 C 369.109 157.253,368.791 155.650,368.647 154.000 C 368.312 150.154,366.400 139.062,366.027 138.800 C 365.871 138.690,365.154 136.170,364.436 133.200 C 363.717 130.230,362.802 127.080,362.403 126.200 C 362.004 125.320,361.102 122.890,360.398 120.800 C 359.694 118.710,358.996 116.910,358.846 116.800 C 358.696 116.690,358.067 115.290,357.447 113.689 C 356.828 112.088,356.108 110.558,355.849 110.289 C 355.590 110.020,354.869 108.630,354.246 107.200 C 353.624 105.770,352.414 103.419,351.557 101.976 C 350.701 100.533,350.000 99.172,350.000 98.951 C 350.000 98.731,349.685 98.202,349.300 97.775 C 348.915 97.349,347.888 95.830,347.017 94.400 C 346.147 92.970,345.121 91.461,344.737 91.046 C 344.354 90.631,343.765 89.731,343.430 89.046 C 343.095 88.361,342.366 87.376,341.810 86.858 C 341.255 86.340,340.799 85.710,340.798 85.458 C 340.797 85.206,340.212 84.360,339.498 83.579 C 338.784 82.797,337.667 81.455,337.016 80.595 C 333.340 75.745,324.336 66.543,318.400 61.569 C 316.530 60.002,314.280 58.111,313.400 57.365 C 312.520 56.620,311.585 56.008,311.323 56.005 C 311.060 56.002,310.610 55.671,310.323 55.269 C 310.035 54.867,308.720 53.853,307.400 53.016 C 306.080 52.179,304.910 51.381,304.800 51.243 C 304.406 50.750,301.373 48.909,300.495 48.630 C 300.003 48.474,299.600 48.187,299.600 47.992 C 299.600 47.797,298.205 46.955,296.500 46.119 C 294.795 45.284,293.344 44.478,293.276 44.328 C 293.021 43.770,280.725 38.000,279.789 38.000 C 279.465 38.000,279.200 37.828,279.200 37.617 C 279.200 37.407,277.766 36.782,276.014 36.228 C 274.261 35.675,271.772 34.777,270.482 34.234 C 269.191 33.691,266.080 32.759,263.568 32.163 C 261.055 31.567,258.910 30.953,258.800 30.798 C 258.373 30.197,241.978 27.600,238.613 27.600 C 237.872 27.600,237.192 27.375,237.100 27.100 C 236.967 26.702,216.165 26.577,135.267 26.488 L 33.600 26.376 33.600 201.788 M282.302 146.700 L 282.200 189.800 265.000 189.800 L 247.800 189.800 247.600 176.679 L 247.400 163.558 232.098 178.979 C 223.682 187.461,216.661 194.400,216.496 194.400 C 216.330 194.400,210.725 188.928,204.040 182.240 L 191.885 170.080 207.518 154.340 L 223.150 138.600 210.075 138.400 L 197.000 138.200 196.896 121.400 C 196.838 112.160,196.877 104.375,196.983 104.100 C 197.135 103.704,206.061 103.600,239.789 103.600 L 282.404 103.600 282.302 146.700 M174.908 115.914 C 181.448 122.467,186.800 128.050,186.800 128.321 C 186.800 128.592,179.960 135.605,171.600 143.907 C 163.240 152.208,156.400 159.133,156.400 159.294 C 156.400 159.456,162.205 159.636,169.300 159.694 L 182.200 159.800 182.304 177.100 L 182.408 194.400 139.202 194.400 L 95.996 194.400 96.098 151.700 L 96.200 109.000 113.600 109.000 L 131.000 109.000 131.200 121.902 L 131.400 134.805 146.798 119.402 C 155.267 110.931,162.380 104.000,162.606 104.000 C 162.831 104.000,168.367 109.361,174.908 115.914 M182.200 252.000 L 182.200 294.600 164.900 294.704 L 147.600 294.808 147.600 281.506 L 147.600 268.204 131.698 284.102 L 115.796 300.001 103.698 287.898 C 97.044 281.241,91.600 275.573,91.600 275.301 C 91.600 275.029,98.451 268.010,106.824 259.703 L 122.047 244.600 109.124 244.400 L 96.200 244.200 96.096 226.698 L 95.992 209.196 139.096 209.298 L 182.200 209.400 182.200 252.000 M282.704 226.700 L 282.600 244.200 269.698 244.400 L 256.795 244.600 271.998 259.798 C 280.359 268.157,287.200 275.178,287.200 275.400 C 287.200 275.623,281.755 281.247,275.100 287.898 L 263.000 299.991 247.400 284.405 C 238.820 275.832,231.665 268.814,231.500 268.809 C 231.335 268.804,231.200 274.652,231.200 281.804 L 231.200 294.808 213.900 294.704 L 196.600 294.600 196.497 252.400 C 196.440 229.190,196.480 209.975,196.584 209.700 C 196.735 209.304,205.747 209.200,239.792 209.200 L 282.808 209.200 282.704 226.700 " stroke="none" fill="#040404" fill-rule="evenodd"></path><path id="path3" d="M197.296 121.098 L 197.391 138.200 197.500 121.300 L 197.609 104.400 239.804 104.400 L 282.000 104.400 282.000 146.800 L 282.000 189.200 265.200 189.200 L 248.400 189.200 248.400 176.224 C 248.400 163.066,248.264 161.855,246.960 163.351 C 246.651 163.706,246.614 163.818,246.879 163.599 C 247.143 163.379,247.504 163.200,247.680 163.200 C 247.856 163.200,248.000 169.142,248.000 176.404 L 248.000 189.609 265.100 189.504 L 282.200 189.400 282.200 146.800 L 282.200 104.200 239.700 104.098 L 197.200 103.996 197.296 121.098 M130.494 122.076 C 130.407 134.224,130.573 136.538,131.434 135.145 C 131.614 134.854,131.550 134.783,131.267 134.958 C 130.930 135.167,130.782 131.820,130.700 122.120 L 130.589 109.000 130.494 122.076 M185.794 127.518 L 186.557 128.437 175.980 139.118 L 165.402 149.800 176.195 139.105 L 186.988 128.410 186.009 127.505 L 185.030 126.600 185.794 127.518 M216.794 145.500 L 211.800 150.600 216.900 145.606 C 221.637 140.967,222.181 140.400,221.894 140.400 C 221.836 140.400,219.541 142.695,216.794 145.500 M208.191 154.100 L 205.000 157.400 208.300 154.209 C 211.365 151.246,211.782 150.800,211.491 150.800 C 211.430 150.800,209.945 152.285,208.191 154.100 M198.408 163.792 C 193.283 168.925,192.318 170.072,192.771 170.492 C 193.215 170.905,193.260 170.898,193.008 170.456 C 192.792 170.077,194.562 168.044,198.844 163.756 C 202.225 160.370,204.900 157.600,204.790 157.600 C 204.680 157.600,201.808 160.387,198.408 163.792 M155.600 159.700 C 155.600 159.865,161.585 159.961,168.900 159.914 C 182.191 159.828,180.695 159.694,164.300 159.502 C 159.514 159.446,155.599 159.535,155.600 159.700 M244.175 166.100 L 243.000 167.400 244.300 166.225 C 245.015 165.579,245.600 164.994,245.600 164.925 C 245.600 164.616,245.270 164.888,244.175 166.100 M240.778 169.500 L 239.400 171.000 240.900 169.622 C 242.296 168.338,242.584 168.000,242.278 168.000 C 242.212 168.000,241.537 168.675,240.778 169.500 M237.375 172.900 L 236.200 174.200 237.500 173.025 C 238.215 172.379,238.800 171.794,238.800 171.725 C 238.800 171.416,238.470 171.688,237.375 172.900 M234.175 176.100 L 233.000 177.400 234.300 176.225 C 235.015 175.579,235.600 174.994,235.600 174.925 C 235.600 174.616,235.270 174.888,234.175 176.100 M207.197 184.900 C 212.145 189.905,216.376 194.000,216.600 194.000 C 216.824 194.000,220.696 190.273,225.204 185.718 C 229.712 181.163,232.950 177.788,232.400 178.218 C 231.850 178.648,228.340 182.062,224.600 185.805 C 220.860 189.548,217.473 192.865,217.074 193.176 C 216.409 193.694,215.588 192.990,207.274 184.771 L 198.200 175.800 207.197 184.900 M117.700 194.300 C 129.525 194.359,148.875 194.359,160.700 194.300 C 172.525 194.241,162.850 194.193,139.200 194.193 C 115.550 194.193,105.875 194.241,117.700 194.300 M282.400 226.880 C 282.290 236.274,282.337 243.823,282.504 243.656 C 282.672 243.488,282.762 235.802,282.704 226.576 L 282.600 209.800 282.400 226.880 M269.800 258.000 C 274.196 262.400,277.882 266.000,277.992 266.000 C 278.102 266.000,274.596 262.400,270.200 258.000 C 265.804 253.600,262.118 250.000,262.008 250.000 C 261.898 250.000,265.404 253.600,269.800 258.000 M98.214 268.386 C 94.487 272.118,91.519 275.223,91.619 275.286 C 91.718 275.348,94.854 272.295,98.587 268.500 C 102.320 264.705,105.288 261.600,105.183 261.600 C 105.077 261.600,101.942 264.653,98.214 268.386 M282.600 270.800 C 285.012 273.220,287.076 275.200,287.186 275.200 C 287.296 275.200,285.412 273.220,283.000 270.800 C 280.588 268.380,278.524 266.400,278.414 266.400 C 278.304 266.400,280.188 268.380,282.600 270.800 M231.011 268.426 C 230.889 268.746,230.839 274.765,230.900 281.803 L 231.012 294.600 231.106 281.406 L 231.200 268.211 236.600 273.600 C 239.570 276.564,242.000 278.899,242.000 278.789 C 242.000 278.101,231.205 267.921,231.011 268.426 " stroke="none" fill="#7474cc" fill-rule="evenodd"></path><path id="path4" d="M196.983 104.100 C 196.877 104.375,196.838 112.160,196.896 121.400 L 197.000 138.200 210.192 138.306 L 223.383 138.411 212.592 149.306 L 201.800 160.200 212.700 149.403 C 218.695 143.464,223.600 138.469,223.600 138.303 C 223.600 138.136,217.660 138.000,210.400 138.000 L 197.200 138.000 197.200 120.996 L 197.200 103.993 239.800 104.096 C 263.230 104.153,282.400 104.065,282.400 103.900 C 282.400 103.337,197.199 103.537,196.983 104.100 M149.998 116.300 L 137.800 128.600 150.100 116.402 C 161.531 105.067,162.580 104.000,162.298 104.000 C 162.241 104.000,156.706 109.535,149.998 116.300 M173.600 115.000 C 179.647 121.050,184.685 126.000,184.795 126.000 C 184.905 126.000,180.047 121.050,174.000 115.000 C 167.953 108.950,162.915 104.000,162.805 104.000 C 162.695 104.000,167.553 108.950,173.600 115.000 M96.186 109.296 C 96.080 109.573,96.041 128.880,96.099 152.200 L 96.204 194.600 96.302 151.900 L 96.400 109.200 113.595 109.200 L 130.789 109.200 130.903 122.100 L 131.016 135.000 131.008 122.000 L 131.000 109.000 113.689 108.896 C 100.054 108.814,96.337 108.899,96.186 109.296 M135.978 130.300 L 134.600 131.800 136.100 130.422 C 137.496 129.138,137.784 128.800,137.478 128.800 C 137.412 128.800,136.737 129.475,135.978 130.300 M132.778 133.500 L 131.400 135.000 132.900 133.622 C 133.725 132.863,134.400 132.188,134.400 132.122 C 134.400 131.816,134.062 132.104,132.778 133.500 M160.614 154.386 C 157.988 157.019,155.921 159.224,156.020 159.286 C 156.119 159.349,158.352 157.195,160.982 154.500 C 163.612 151.805,165.680 149.600,165.576 149.600 C 165.472 149.600,163.239 151.754,160.614 154.386 M182.184 177.200 C 182.184 186.770,182.236 190.685,182.300 185.900 C 182.363 181.115,182.363 173.285,182.300 168.500 C 182.236 163.715,182.184 167.630,182.184 177.200 M240.196 170.500 L 233.000 177.800 240.294 170.610 L 247.589 163.419 247.694 176.610 L 247.800 189.800 264.776 189.904 C 274.112 189.962,281.888 189.872,282.056 189.704 C 282.223 189.537,274.629 189.449,265.180 189.508 L 248.000 189.617 248.000 176.408 C 248.000 169.144,247.863 163.200,247.696 163.200 C 247.529 163.200,244.154 166.485,240.196 170.500 M203.998 182.100 C 216.474 194.681,216.706 194.879,217.651 193.736 C 218.154 193.128,218.124 193.119,217.299 193.632 C 216.432 194.173,215.944 193.743,204.099 181.997 L 191.800 169.800 203.998 182.100 M96.096 226.698 L 96.200 244.200 109.157 244.306 L 122.114 244.411 121.357 245.306 L 120.600 246.200 121.500 245.438 C 123.118 244.068,122.543 244.000,109.400 244.000 L 96.400 244.000 96.400 226.800 L 96.400 209.600 139.200 209.600 L 182.000 209.600 182.000 251.996 L 182.000 294.392 164.800 294.502 L 147.600 294.613 164.900 294.606 L 182.200 294.600 182.200 252.000 L 182.200 209.400 139.096 209.298 L 95.992 209.196 96.096 226.698 M196.584 209.700 C 196.480 209.975,196.440 229.190,196.497 252.400 L 196.600 294.600 213.900 294.606 L 231.200 294.613 214.000 294.502 L 196.800 294.392 196.800 251.992 L 196.800 209.593 239.800 209.696 C 263.450 209.753,282.800 209.665,282.800 209.500 C 282.800 208.937,196.799 209.137,196.584 209.700 M269.500 243.900 C 262.295 243.961,256.400 244.148,256.400 244.316 C 256.400 244.484,257.705 245.877,259.300 247.411 L 262.200 250.200 259.411 247.300 L 256.621 244.400 269.487 244.400 C 277.633 244.400,282.443 244.253,282.600 244.000 C 282.736 243.780,282.792 243.642,282.724 243.694 C 282.656 243.746,276.705 243.839,269.500 243.900 M140.575 274.900 L 139.400 276.200 140.700 275.025 C 141.912 273.930,142.184 273.600,141.875 273.600 C 141.806 273.600,141.221 274.185,140.575 274.900 M97.200 281.400 C 100.384 284.590,103.080 287.200,103.190 287.200 C 103.300 287.200,100.784 284.590,97.600 281.400 C 94.416 278.210,91.720 275.600,91.610 275.600 C 91.500 275.600,94.016 278.210,97.200 281.400 M275.000 287.600 L 263.005 299.600 252.403 289.100 L 241.800 278.600 252.397 289.300 L 262.995 300.000 275.097 287.903 C 281.754 281.249,287.200 275.759,287.200 275.702 C 287.200 275.421,286.155 276.441,275.000 287.600 M137.375 278.100 L 136.200 279.400 137.500 278.225 C 138.712 277.130,138.984 276.800,138.675 276.800 C 138.606 276.800,138.021 277.385,137.375 278.100 M133.775 281.700 L 132.600 283.000 133.900 281.825 C 135.112 280.730,135.384 280.400,135.075 280.400 C 135.006 280.400,134.421 280.985,133.775 281.700 M130.575 284.900 L 129.400 286.200 130.700 285.025 C 131.912 283.930,132.184 283.600,131.875 283.600 C 131.806 283.600,131.221 284.185,130.575 284.900 M126.975 288.500 L 125.800 289.800 127.100 288.625 C 128.312 287.530,128.584 287.200,128.275 287.200 C 128.206 287.200,127.621 287.785,126.975 288.500 M104.800 289.000 C 105.546 289.770,106.247 290.400,106.357 290.400 C 106.467 290.400,105.946 289.770,105.200 289.000 C 104.454 288.230,103.753 287.600,103.643 287.600 C 103.533 287.600,104.054 288.230,104.800 289.000 M120.401 294.999 L 115.816 299.597 112.808 296.699 L 109.800 293.800 112.790 296.900 C 114.434 298.605,115.787 300.000,115.796 300.000 C 115.805 300.000,117.967 297.840,120.600 295.200 C 123.233 292.560,125.297 290.400,125.187 290.400 C 125.077 290.400,122.923 292.469,120.401 294.999 M106.800 290.925 C 106.800 290.994,107.385 291.579,108.100 292.225 L 109.400 293.400 108.225 292.100 C 107.130 290.888,106.800 290.616,106.800 290.925 " stroke="none" fill="#494949" fill-rule="evenodd"></path></g></svg>